<mxfile host="app.diagrams.net" modified="2021-12-12T04:26:19.129Z" agent="5.0 (Windows NT 10.0; Win64; x64) AppleWebKit/537.36 (KHTML, like Gecko) Chrome/96.0.4664.93 Safari/537.36" etag="AyLOz4s9aNx90QXJeZRS" version="15.9.4" type="github">
  <diagram id="50J1hsUeFU688QyFhv9B" name="Page-1">
    <mxGraphModel dx="2220" dy="673" grid="1" gridSize="10" guides="1" tooltips="1" connect="1" arrows="1" fold="1" page="1" pageScale="1" pageWidth="827" pageHeight="1169" math="0" shadow="0">
      <root>
        <mxCell id="0" />
        <mxCell id="1" parent="0" />
        <mxCell id="q0hlCq6jyJoXcsFqNNth-1" value="Hank" style="rounded=0;whiteSpace=wrap;html=1;" vertex="1" parent="1">
          <mxGeometry x="40" y="200" width="120" height="60" as="geometry" />
        </mxCell>
        <mxCell id="q0hlCq6jyJoXcsFqNNth-2" value="Adam" style="rounded=0;whiteSpace=wrap;html=1;" vertex="1" parent="1">
          <mxGeometry x="640" y="400" width="120" height="60" as="geometry" />
        </mxCell>
        <mxCell id="q0hlCq6jyJoXcsFqNNth-3" value="Steve" style="rounded=0;whiteSpace=wrap;html=1;" vertex="1" parent="1">
          <mxGeometry x="640" y="120" width="120" height="60" as="geometry" />
        </mxCell>
        <mxCell id="q0hlCq6jyJoXcsFqNNth-4" value="Administration" style="rounded=0;whiteSpace=wrap;html=1;" vertex="1" parent="1">
          <mxGeometry x="320" y="20" width="120" height="60" as="geometry" />
        </mxCell>
        <mxCell id="q0hlCq6jyJoXcsFqNNth-62" value="Felix" style="rounded=0;whiteSpace=wrap;html=1;" vertex="1" parent="1">
          <mxGeometry x="40" y="480" width="120" height="60" as="geometry" />
        </mxCell>
        <mxCell id="q0hlCq6jyJoXcsFqNNth-67" value="" style="endArrow=blockThin;html=1;labelPosition=left;verticalLabelPosition=middle;align=right;verticalAlign=middle;dashed=1;dashPattern=8 4;endFill=0;startArrow=oval;startFill=0;endSize=6;startSize=4;rounded=0;exitX=0;exitY=0.75;exitDx=0;exitDy=0;entryX=0.25;entryY=0;entryDx=0;entryDy=0;" edge="1" parent="1" source="q0hlCq6jyJoXcsFqNNth-4" target="q0hlCq6jyJoXcsFqNNth-1">
          <mxGeometry relative="1" as="geometry">
            <mxPoint x="130" y="110" as="sourcePoint" />
            <mxPoint x="290" y="110" as="targetPoint" />
          </mxGeometry>
        </mxCell>
        <mxCell id="q0hlCq6jyJoXcsFqNNth-68" value="" style="shape=message;html=1;outlineConnect=0;labelPosition=left;verticalLabelPosition=middle;align=right;verticalAlign=middle;spacingRight=5;labelBackgroundColor=#ffffff;" vertex="1" parent="q0hlCq6jyJoXcsFqNNth-67">
          <mxGeometry width="24" height="16" relative="1" as="geometry">
            <mxPoint x="8" y="-8" as="offset" />
          </mxGeometry>
        </mxCell>
        <mxCell id="q0hlCq6jyJoXcsFqNNth-69" value="" style="endArrow=blockThin;html=1;labelPosition=left;verticalLabelPosition=middle;align=right;verticalAlign=middle;dashed=1;dashPattern=8 4;endFill=0;startArrow=oval;startFill=0;endSize=6;startSize=4;rounded=0;exitX=0;exitY=0.75;exitDx=0;exitDy=0;" edge="1" parent="1" source="q0hlCq6jyJoXcsFqNNth-4">
          <mxGeometry relative="1" as="geometry">
            <mxPoint x="350" y="80" as="sourcePoint" />
            <mxPoint x="130" y="200" as="targetPoint" />
          </mxGeometry>
        </mxCell>
        <mxCell id="q0hlCq6jyJoXcsFqNNth-70" value="" style="shape=message;html=1;outlineConnect=0;labelPosition=left;verticalLabelPosition=middle;align=right;verticalAlign=middle;spacingRight=5;labelBackgroundColor=#ffffff;" vertex="1" parent="q0hlCq6jyJoXcsFqNNth-69">
          <mxGeometry width="24" height="16" relative="1" as="geometry">
            <mxPoint x="8" y="-8" as="offset" />
          </mxGeometry>
        </mxCell>
        <mxCell id="q0hlCq6jyJoXcsFqNNth-71" value="" style="endArrow=blockThin;html=1;labelPosition=left;verticalLabelPosition=middle;align=right;verticalAlign=middle;dashed=1;dashPattern=8 4;endFill=0;startArrow=oval;startFill=0;endSize=6;startSize=4;rounded=0;exitX=0.25;exitY=1;exitDx=0;exitDy=0;entryX=0.25;entryY=0;entryDx=0;entryDy=0;" edge="1" parent="1" source="q0hlCq6jyJoXcsFqNNth-3" target="q0hlCq6jyJoXcsFqNNth-2">
          <mxGeometry relative="1" as="geometry">
            <mxPoint x="680" y="180" as="sourcePoint" />
            <mxPoint x="460" y="300" as="targetPoint" />
          </mxGeometry>
        </mxCell>
        <mxCell id="q0hlCq6jyJoXcsFqNNth-72" value="" style="shape=message;html=1;outlineConnect=0;labelPosition=left;verticalLabelPosition=middle;align=right;verticalAlign=middle;spacingRight=5;labelBackgroundColor=#ffffff;" vertex="1" parent="q0hlCq6jyJoXcsFqNNth-71">
          <mxGeometry width="24" height="16" relative="1" as="geometry">
            <mxPoint x="8" y="-8" as="offset" />
          </mxGeometry>
        </mxCell>
        <mxCell id="q0hlCq6jyJoXcsFqNNth-73" value="" style="endArrow=blockThin;html=1;labelPosition=left;verticalLabelPosition=middle;align=right;verticalAlign=middle;dashed=1;dashPattern=8 4;endFill=0;startArrow=oval;startFill=0;endSize=6;startSize=4;rounded=0;exitX=0.25;exitY=1;exitDx=0;exitDy=0;entryX=0.25;entryY=0;entryDx=0;entryDy=0;" edge="1" parent="1">
          <mxGeometry relative="1" as="geometry">
            <mxPoint x="720" y="180" as="sourcePoint" />
            <mxPoint x="720" y="400" as="targetPoint" />
          </mxGeometry>
        </mxCell>
        <mxCell id="q0hlCq6jyJoXcsFqNNth-74" value="" style="shape=message;html=1;outlineConnect=0;labelPosition=left;verticalLabelPosition=middle;align=right;verticalAlign=middle;spacingRight=5;labelBackgroundColor=#ffffff;" vertex="1" parent="q0hlCq6jyJoXcsFqNNth-73">
          <mxGeometry width="24" height="16" relative="1" as="geometry">
            <mxPoint x="8" y="-8" as="offset" />
          </mxGeometry>
        </mxCell>
        <mxCell id="q0hlCq6jyJoXcsFqNNth-75" value="" style="endArrow=blockThin;html=1;labelPosition=left;verticalLabelPosition=middle;align=right;verticalAlign=middle;dashed=1;dashPattern=8 4;endFill=0;startArrow=oval;startFill=0;endSize=6;startSize=4;rounded=0;exitX=0.75;exitY=1;exitDx=0;exitDy=0;entryX=0.5;entryY=0;entryDx=0;entryDy=0;" edge="1" parent="1" source="q0hlCq6jyJoXcsFqNNth-4" target="q0hlCq6jyJoXcsFqNNth-62">
          <mxGeometry relative="1" as="geometry">
            <mxPoint x="480" y="140" as="sourcePoint" />
            <mxPoint x="260" y="260" as="targetPoint" />
          </mxGeometry>
        </mxCell>
        <mxCell id="q0hlCq6jyJoXcsFqNNth-76" value="" style="shape=message;html=1;outlineConnect=0;labelPosition=left;verticalLabelPosition=middle;align=right;verticalAlign=middle;spacingRight=5;labelBackgroundColor=#ffffff;" vertex="1" parent="q0hlCq6jyJoXcsFqNNth-75">
          <mxGeometry width="24" height="16" relative="1" as="geometry">
            <mxPoint x="8" y="-8" as="offset" />
          </mxGeometry>
        </mxCell>
        <mxCell id="q0hlCq6jyJoXcsFqNNth-77" value="" style="endArrow=blockThin;html=1;labelPosition=left;verticalLabelPosition=middle;align=right;verticalAlign=middle;dashed=1;dashPattern=8 4;endFill=0;startArrow=oval;startFill=0;endSize=6;startSize=4;rounded=0;exitX=0.75;exitY=1;exitDx=0;exitDy=0;entryX=1;entryY=0;entryDx=0;entryDy=0;" edge="1" parent="1" source="q0hlCq6jyJoXcsFqNNth-4" target="q0hlCq6jyJoXcsFqNNth-62">
          <mxGeometry relative="1" as="geometry">
            <mxPoint x="420" y="90" as="sourcePoint" />
            <mxPoint x="110" y="490" as="targetPoint" />
          </mxGeometry>
        </mxCell>
        <mxCell id="q0hlCq6jyJoXcsFqNNth-78" value="" style="shape=message;html=1;outlineConnect=0;labelPosition=left;verticalLabelPosition=middle;align=right;verticalAlign=middle;spacingRight=5;labelBackgroundColor=#ffffff;" vertex="1" parent="q0hlCq6jyJoXcsFqNNth-77">
          <mxGeometry width="24" height="16" relative="1" as="geometry">
            <mxPoint x="8" y="-8" as="offset" />
          </mxGeometry>
        </mxCell>
        <mxCell id="q0hlCq6jyJoXcsFqNNth-79" value="Darren" style="rounded=0;whiteSpace=wrap;html=1;" vertex="1" parent="1">
          <mxGeometry x="320" y="600" width="120" height="60" as="geometry" />
        </mxCell>
        <mxCell id="q0hlCq6jyJoXcsFqNNth-80" value="" style="endArrow=blockThin;html=1;labelPosition=left;verticalLabelPosition=middle;align=right;verticalAlign=middle;dashed=1;dashPattern=8 4;endFill=0;startArrow=oval;startFill=0;endSize=6;startSize=4;rounded=0;entryX=0.75;entryY=0;entryDx=0;entryDy=0;exitX=0;exitY=1;exitDx=0;exitDy=0;" edge="1" parent="1" source="q0hlCq6jyJoXcsFqNNth-2" target="q0hlCq6jyJoXcsFqNNth-79">
          <mxGeometry relative="1" as="geometry">
            <mxPoint x="360" y="500" as="sourcePoint" />
            <mxPoint x="520" y="500" as="targetPoint" />
          </mxGeometry>
        </mxCell>
        <mxCell id="q0hlCq6jyJoXcsFqNNth-81" value="" style="shape=message;html=1;outlineConnect=0;labelPosition=left;verticalLabelPosition=middle;align=right;verticalAlign=middle;spacingRight=5;labelBackgroundColor=#ffffff;" vertex="1" parent="q0hlCq6jyJoXcsFqNNth-80">
          <mxGeometry width="24" height="16" relative="1" as="geometry">
            <mxPoint x="8" y="-8" as="offset" />
          </mxGeometry>
        </mxCell>
        <mxCell id="q0hlCq6jyJoXcsFqNNth-82" value="" style="shape=line;html=1;strokeWidth=6;strokeColor=#ff0000;" vertex="1" parent="1">
          <mxGeometry x="-320" y="1160" width="1120" height="10" as="geometry" />
        </mxCell>
        <mxCell id="q0hlCq6jyJoXcsFqNNth-86" value="2009" style="text;html=1;strokeColor=none;fillColor=none;align=center;verticalAlign=middle;whiteSpace=wrap;rounded=0;shadow=0;fontStyle=3;fontSize=14;" vertex="1" parent="1">
          <mxGeometry x="-340" y="1220" width="60" height="30" as="geometry" />
        </mxCell>
        <mxCell id="q0hlCq6jyJoXcsFqNNth-87" value="2011" style="text;html=1;strokeColor=none;fillColor=none;align=center;verticalAlign=middle;whiteSpace=wrap;rounded=0;shadow=0;fontStyle=3;fontSize=14;" vertex="1" parent="1">
          <mxGeometry x="640" y="1220" width="60" height="30" as="geometry" />
        </mxCell>
        <mxCell id="q0hlCq6jyJoXcsFqNNth-88" value="2010" style="text;html=1;strokeColor=none;fillColor=none;align=center;verticalAlign=middle;whiteSpace=wrap;rounded=0;shadow=0;fontStyle=3;fontSize=14;" vertex="1" parent="1">
          <mxGeometry x="150" y="1220" width="60" height="30" as="geometry" />
        </mxCell>
        <mxCell id="q0hlCq6jyJoXcsFqNNth-89" value="Darren arrives" style="rounded=1;whiteSpace=wrap;html=1;arcSize=40;fontColor=#000000;fillColor=#ffffc0;strokeColor=#ff0000;" vertex="1" parent="1">
          <mxGeometry x="-40" y="950" width="120" height="40" as="geometry" />
        </mxCell>
        <mxCell id="q0hlCq6jyJoXcsFqNNth-90" value="" style="edgeStyle=orthogonalEdgeStyle;html=1;verticalAlign=bottom;endArrow=open;endSize=8;strokeColor=#ff0000;rounded=0;" edge="1" source="q0hlCq6jyJoXcsFqNNth-89" parent="1">
          <mxGeometry relative="1" as="geometry">
            <mxPoint x="-100" y="1160" as="targetPoint" />
          </mxGeometry>
        </mxCell>
        <mxCell id="q0hlCq6jyJoXcsFqNNth-93" value="" style="edgeStyle=orthogonalEdgeStyle;html=1;verticalAlign=bottom;endArrow=open;endSize=8;strokeColor=#ff0000;rounded=0;entryX=0.054;entryY=0.8;entryDx=0;entryDy=0;entryPerimeter=0;" edge="1" source="q0hlCq6jyJoXcsFqNNth-94" parent="1" target="q0hlCq6jyJoXcsFqNNth-82">
          <mxGeometry relative="1" as="geometry">
            <mxPoint x="250" y="1460" as="targetPoint" />
          </mxGeometry>
        </mxCell>
        <mxCell id="q0hlCq6jyJoXcsFqNNth-94" value="Dr Relkin&lt;br&gt;meets with Darren" style="rounded=1;whiteSpace=wrap;html=1;arcSize=40;fontColor=#000000;fillColor=#ffffc0;strokeColor=#ff0000;" vertex="1" parent="1">
          <mxGeometry x="-210" y="1300" width="120" height="40" as="geometry" />
        </mxCell>
        <mxCell id="q0hlCq6jyJoXcsFqNNth-95" value="" style="rounded=1;whiteSpace=wrap;html=1;arcSize=40;fontColor=#000000;fillColor=#ffffc0;strokeColor=#ff0000;" vertex="1" parent="1">
          <mxGeometry x="890" y="790" width="120" height="40" as="geometry" />
        </mxCell>
        <mxCell id="q0hlCq6jyJoXcsFqNNth-96" value="" style="edgeStyle=orthogonalEdgeStyle;html=1;verticalAlign=bottom;endArrow=open;endSize=8;strokeColor=#ff0000;rounded=0;" edge="1" source="q0hlCq6jyJoXcsFqNNth-95" parent="1">
          <mxGeometry relative="1" as="geometry">
            <mxPoint x="950" y="1000" as="targetPoint" />
          </mxGeometry>
        </mxCell>
        <mxCell id="q0hlCq6jyJoXcsFqNNth-97" value="New Security" style="rounded=1;whiteSpace=wrap;html=1;arcSize=40;fontColor=#000000;fillColor=#ffffc0;strokeColor=#ff0000;" vertex="1" parent="1">
          <mxGeometry x="280" y="950" width="120" height="40" as="geometry" />
        </mxCell>
        <mxCell id="q0hlCq6jyJoXcsFqNNth-98" value="" style="edgeStyle=orthogonalEdgeStyle;html=1;verticalAlign=bottom;endArrow=open;endSize=8;strokeColor=#ff0000;rounded=0;" edge="1" source="q0hlCq6jyJoXcsFqNNth-97" parent="1">
          <mxGeometry relative="1" as="geometry">
            <mxPoint x="340" y="1160" as="targetPoint" />
          </mxGeometry>
        </mxCell>
        <mxCell id="q0hlCq6jyJoXcsFqNNth-99" value="J         F         M         A          M         J          J          A          S         O          N         D" style="text;align=left;fontStyle=1;verticalAlign=middle;spacingLeft=3;spacingRight=3;strokeColor=none;rotatable=0;points=[[0,0.5],[1,0.5]];portConstraint=eastwest;" vertex="1" parent="1">
          <mxGeometry x="-320" y="1090" width="480" height="26" as="geometry" />
        </mxCell>
        <mxCell id="q0hlCq6jyJoXcsFqNNth-100" value="J         F         M         A          M         J          J          A          S         O          N         D" style="text;align=left;fontStyle=1;verticalAlign=middle;spacingLeft=3;spacingRight=3;strokeColor=none;rotatable=0;points=[[0,0.5],[1,0.5]];portConstraint=eastwest;" vertex="1" parent="1">
          <mxGeometry x="160" y="1090" width="480" height="26" as="geometry" />
        </mxCell>
        <mxCell id="q0hlCq6jyJoXcsFqNNth-102" value="J         F         M         A          M         J          J          A          S         O          N         D" style="text;align=left;fontStyle=1;verticalAlign=middle;spacingLeft=3;spacingRight=3;strokeColor=none;rotatable=0;points=[[0,0.5],[1,0.5]];portConstraint=eastwest;" vertex="1" parent="1">
          <mxGeometry x="640" y="1090" width="480" height="26" as="geometry" />
        </mxCell>
        <mxCell id="q0hlCq6jyJoXcsFqNNth-103" value="" style="shape=line;html=1;strokeWidth=6;strokeColor=#3333FF;" vertex="1" parent="1">
          <mxGeometry x="-820" y="1160" width="490" height="10" as="geometry" />
        </mxCell>
        <mxCell id="q0hlCq6jyJoXcsFqNNth-104" value="Darren goes missing" style="rounded=1;whiteSpace=wrap;html=1;arcSize=40;fontColor=#000000;fillColor=#ffffc0;strokeColor=#ff0000;" vertex="1" parent="1">
          <mxGeometry x="470" y="950" width="120" height="40" as="geometry" />
        </mxCell>
        <mxCell id="q0hlCq6jyJoXcsFqNNth-105" value="" style="edgeStyle=orthogonalEdgeStyle;html=1;verticalAlign=bottom;endArrow=open;endSize=8;strokeColor=#ff0000;rounded=0;entryX=0.705;entryY=0;entryDx=0;entryDy=0;entryPerimeter=0;" edge="1" source="q0hlCq6jyJoXcsFqNNth-104" parent="1" target="q0hlCq6jyJoXcsFqNNth-82">
          <mxGeometry relative="1" as="geometry">
            <mxPoint x="550" y="1010" as="targetPoint" />
          </mxGeometry>
        </mxCell>
        <mxCell id="q0hlCq6jyJoXcsFqNNth-106" value="" style="shape=line;html=1;strokeWidth=6;strokeColor=#33FF33;" vertex="1" parent="1">
          <mxGeometry x="620" y="1190" width="460" height="10" as="geometry" />
        </mxCell>
        <mxCell id="q0hlCq6jyJoXcsFqNNth-107" value="2008" style="text;html=1;strokeColor=none;fillColor=none;align=center;verticalAlign=middle;whiteSpace=wrap;rounded=0;" vertex="1" parent="1">
          <mxGeometry x="-605" y="1220" width="60" height="30" as="geometry" />
        </mxCell>
        <mxCell id="q0hlCq6jyJoXcsFqNNth-114" value="&lt;p style=&quot;margin: 0px ; margin-top: 4px ; text-align: center ; text-decoration: underline&quot;&gt;&lt;b&gt;Historic Events&lt;/b&gt;&lt;/p&gt;&lt;hr&gt;&lt;p style=&quot;margin: 0px ; margin-left: 8px&quot;&gt;2008&lt;br&gt;2009&lt;/p&gt;" style="verticalAlign=top;align=left;overflow=fill;fontSize=12;fontFamily=Helvetica;html=1;shadow=0;strokeColor=#000000;" vertex="1" parent="1">
          <mxGeometry x="-690" y="1010" width="160" height="90" as="geometry" />
        </mxCell>
        <mxCell id="q0hlCq6jyJoXcsFqNNth-116" value="&lt;span&gt;Who left the note for Steve?&lt;/span&gt;" style="ellipse;whiteSpace=wrap;html=1;shadow=0;fontSize=14;strokeColor=#36393d;fillColor=#ffff88;" vertex="1" parent="1">
          <mxGeometry x="-150" y="560" width="120" height="80" as="geometry" />
        </mxCell>
      </root>
    </mxGraphModel>
  </diagram>
</mxfile>
